<svg width="104" height="113" viewBox="0 0 104 113" fill="none" xmlns="http://www.w3.org/2000/svg">
<g clip-path="url(#clip0_11_3)">
<path d="M18.8213 56.5471H5.07088C3.72538 56.5454 2.4356 56.0074 1.48482 55.0514C0.534037 54.0954 -1.17398e-06 52.7995 0 51.4484L0 13.225C0.00443716 9.71887 1.39343 6.35763 3.86236 3.87843C6.3313 1.39923 9.67861 0.00445561 13.1702 0L61.9875 0C65.4791 0.00445561 68.8264 1.39923 71.2953 3.87843C73.7643 6.35763 75.1533 9.71887 75.1577 13.225V33.0035C75.1577 33.8074 75.4757 34.5783 76.0418 35.1467C76.6078 35.7151 77.3755 36.0345 78.1761 36.0345C78.9766 36.0345 79.7443 35.7151 80.3104 35.1467C80.8764 34.5783 81.1945 33.8074 81.1945 33.0035V31.7507C81.1945 30.3985 81.7294 29.1016 82.6816 28.1454C83.6339 27.1892 84.9254 26.652 86.272 26.652C87.6187 26.652 88.9102 27.1892 89.8624 28.1454C90.8147 29.1016 91.3496 30.3985 91.3496 31.7507V33.0035C91.3496 36.511 89.9621 39.8748 87.4922 42.355C85.0223 44.8352 81.6724 46.2285 78.1794 46.2285C74.6865 46.2285 71.3366 44.8352 68.8667 42.355C66.3968 39.8748 65.0092 36.511 65.0092 33.0035V13.225C65.0092 12.4211 64.6912 11.6502 64.1252 11.0818C63.5591 10.5134 62.7914 10.194 61.9908 10.194H13.1702C12.3697 10.194 11.6019 10.5134 11.0359 11.0818C10.4698 11.6502 10.1518 12.4211 10.1518 13.225V46.3497H18.8213C20.1679 46.3497 21.4594 46.8869 22.4117 47.8431C23.3639 48.7993 23.8989 50.0962 23.8989 51.4484C23.8989 52.8007 23.3639 54.0976 22.4117 55.0538C21.4594 56.01 20.1679 56.5471 18.8213 56.5471Z" fill="#F5F5F5"/>
<path d="M98.9358 26.652C97.5892 26.652 96.2977 27.1892 95.3454 28.1454C94.3932 29.1016 93.8582 30.3985 93.8582 31.7507V99.7784C93.8582 100.582 93.5402 101.353 92.9742 101.922C92.4081 102.49 91.6404 102.809 90.8399 102.809H88.6432V81.1617C88.6432 77.6503 87.2543 74.2827 84.782 71.7995C82.3097 69.3163 78.9564 67.9208 75.4595 67.9199H69.302C65.8073 67.9235 62.4569 69.3203 59.9873 71.8033C57.5177 74.2863 56.131 77.6524 56.1318 81.1617V102.816H13.1702C12.3697 102.816 11.602 102.497 11.0359 101.928C10.4698 101.36 10.1518 100.589 10.1518 99.7851V71.3954H27.4237C28.7703 71.3954 30.0618 70.8582 31.0141 69.902C31.9663 68.9458 32.5013 67.6489 32.5013 66.2967C32.5013 64.9444 31.9663 63.6475 31.0141 62.6913C30.0618 61.7351 28.7703 61.1979 27.4237 61.1979H5.0776C3.7321 61.1979 2.44161 61.7342 1.48957 62.6889C0.537534 63.6437 0.0017908 64.9388 1.33953e-05 66.2899C-0.000693841 66.4552 0.00714213 66.6205 0.0234897 66.785C0.0072219 66.9483 -0.00061401 67.1125 1.33953e-05 67.2767V99.775C0.00445055 103.281 1.39345 106.642 3.86238 109.122C6.33131 111.601 9.67862 112.996 13.1702 113H90.8298C94.3217 112.996 97.6695 111.602 100.139 109.123C102.608 106.643 103.996 103.281 104 99.775V31.7474C103.999 30.398 103.466 29.104 102.516 28.149C101.567 27.1939 100.28 26.6556 98.9358 26.652ZM78.4779 102.799H66.287V81.1617C66.287 80.3579 66.605 79.5869 67.1711 79.0185C67.7371 78.4501 68.5049 78.1308 69.3054 78.1308H75.4595C76.2601 78.1308 77.0278 78.4501 77.5939 79.0185C78.1599 79.5869 78.4779 80.3579 78.4779 81.1617V102.799Z" fill="#F5F5F5"/>
<path d="M47.0733 15.7036H42.643C41.4253 15.7036 40.2575 16.1893 39.3965 17.054C38.5355 17.9186 38.0517 19.0913 38.0517 20.314V24.7627C38.0526 25.9849 38.5367 27.1567 39.3977 28.0206C40.2586 28.8845 41.4259 29.3698 42.643 29.3698H47.0733C48.2875 29.3653 49.4505 28.8781 50.3078 28.0147C51.1652 27.1513 51.647 25.982 51.6479 24.7627V20.314C51.6479 19.0942 51.1664 17.924 50.309 17.0599C49.4516 16.1958 48.2881 15.7081 47.0733 15.7036Z" fill="#F5F5F5"/>
<path d="M95.7766 0H90.5581C86.0165 0 82.3347 3.69706 82.3347 8.25761V13.5011C82.3347 18.0617 86.0165 21.7587 90.5581 21.7587H95.7766C100.318 21.7587 104 18.0617 104 13.5011V8.25761C104 3.69706 100.318 0 95.7766 0Z" fill="#CD4236"/>
<path d="M30.0094 15.7036H25.5824C24.3648 15.7036 23.1969 16.1893 22.3359 17.054C21.4749 17.9186 20.9911 19.0913 20.9911 20.314V24.7627C20.992 25.9849 21.4762 27.1567 22.3371 28.0206C23.198 28.8845 24.3653 29.3698 25.5824 29.3698H30.0094C31.2265 29.3698 32.3938 28.8845 33.2548 28.0206C34.1157 27.1567 34.5998 25.9849 34.6007 24.7627V20.314C34.6007 19.0913 34.117 17.9186 33.2559 17.054C32.3949 16.1893 31.2271 15.7036 30.0094 15.7036Z" fill="#F5F5F5"/>
<path d="M46.3254 50.8894H41.8985C39.3628 50.8894 37.3072 52.9535 37.3072 55.4998V59.9452C37.3072 62.4914 39.3628 64.5556 41.8985 64.5556H46.3254C48.8611 64.5556 50.9167 62.4914 50.9167 59.9452V55.4998C50.9167 52.9535 48.8611 50.8894 46.3254 50.8894Z" fill="#F5F5F5"/>
<path d="M46.3288 68.0277H41.8985C40.6808 68.0277 39.513 68.5134 38.652 69.378C37.7909 70.2426 37.3072 71.4153 37.3072 72.638V77.0868C37.3072 77.6921 37.426 78.2914 37.6567 78.8506C37.8875 79.4098 38.2258 79.9178 38.6522 80.3456C39.0785 80.7735 39.5847 81.1128 40.1417 81.3441C40.6987 81.5754 41.2957 81.6942 41.8985 81.6938H46.3288C46.9314 81.6942 47.5282 81.5754 48.085 81.344C48.6419 81.1127 49.1478 80.7733 49.5739 80.3454C50.0001 79.9175 50.338 79.4095 50.5684 78.8503C50.7988 78.2912 50.9172 77.6919 50.9167 77.0868V72.6313C50.9158 71.41 50.4321 70.2391 49.5718 69.3758C48.7115 68.5126 47.545 68.0277 46.3288 68.0277Z" fill="#F5F5F5"/>
</g>
<defs>
<clipPath id="clip0_11_3">
<rect width="104" height="113" fill="white"/>
</clipPath>
</defs>
</svg>
